<svg width="107" height="50" viewBox="0 0 107 50" fill="none" xmlns="http://www.w3.org/2000/svg">
<rect x="0.921875" width="106.078" height="49.9688" rx="24.9844" fill="#EE2852"/>
<g clip-path="url(#clip0_5_3582)">
<path d="M25.1701 34.9688C24.2958 34.9688 23.7962 34.5941 23.6713 33.9696C23.2966 32.9703 24.2958 32.3458 24.6705 32.096C25.4199 31.5964 25.7946 31.2217 25.9195 30.847C25.9195 30.5972 25.7946 30.3474 25.5448 29.9727C25.5448 29.9727 25.5448 29.8478 25.4199 29.8478C24.1709 28.224 23.5464 26.2256 23.5464 24.2272C23.5464 19.1062 27.7931 14.9844 32.9141 14.9844C38.0351 14.9844 42.2818 19.1062 42.2818 24.2272C42.2818 29.3482 38.0351 33.4699 32.9141 33.4699C32.2896 33.4699 31.665 33.345 31.0405 33.2201C27.7931 34.8439 25.4199 34.9688 25.4199 34.9688C25.295 34.9688 25.295 34.9688 25.1701 34.9688ZM27.6682 28.5987C28.2927 29.4731 28.5425 30.4723 28.4176 31.3466C28.4176 31.4715 28.2927 31.7213 28.2927 31.8462C28.9172 31.5964 29.5417 31.3466 30.2911 30.9719C30.5409 30.847 30.7907 30.7221 31.0405 30.847H31.1654C31.665 30.9719 32.2896 31.0968 32.9141 31.0968C36.6611 31.0968 39.7837 28.0991 39.7837 24.3521C39.7837 20.605 36.6611 17.4824 32.9141 17.4824C29.167 17.4824 26.0444 20.4801 26.0444 24.2272C26.0444 25.726 26.544 27.2248 27.5433 28.3489C27.5433 28.4738 27.6682 28.4738 27.6682 28.5987Z" fill="white"/>
</g>
<path d="M59.6367 30.6108C58.8701 30.9819 57.8691 31.1675 56.6338 31.1675C55.0225 31.1675 53.7554 30.6938 52.8325 29.7466C51.9097 28.7993 51.4482 27.5371 51.4482 25.96C51.4482 24.2803 51.9658 22.918 53.001 21.873C54.041 20.8281 55.3887 20.3057 57.0439 20.3057C58.0693 20.3057 58.9336 20.4351 59.6367 20.6938V22.9717C58.9336 22.5518 58.1328 22.3418 57.2344 22.3418C56.248 22.3418 55.4521 22.6519 54.8467 23.272C54.2412 23.8921 53.9385 24.7319 53.9385 25.7915C53.9385 26.8071 54.2241 27.6177 54.7954 28.2231C55.3667 28.8237 56.1357 29.124 57.1025 29.124C58.0254 29.124 58.8701 28.8994 59.6367 28.4502V30.6108ZM69.0404 30.9844H66.7333V26.7217C66.7333 25.623 66.3329 25.0737 65.5321 25.0737C65.122 25.0737 64.7899 25.2275 64.536 25.5352C64.2821 25.8428 64.1552 26.2334 64.1552 26.707V30.9844H61.8407V19.8809H64.1552V24.5977H64.1845C64.7509 23.7334 65.5199 23.3013 66.4916 23.3013C68.1908 23.3013 69.0404 24.3267 69.0404 26.3774V30.9844ZM77.719 30.9844H75.5291V29.9077H75.4998C74.9969 30.7476 74.2522 31.1675 73.2659 31.1675C72.5384 31.1675 71.9646 30.9624 71.5447 30.5522C71.1297 30.1372 70.9222 29.5854 70.9222 28.897C70.9222 27.4419 71.784 26.6021 73.5076 26.3774L75.5438 26.1064C75.5438 25.2861 75.0994 24.876 74.2107 24.876C73.3172 24.876 72.4676 25.1421 71.6619 25.6743V23.9312C71.9842 23.7651 72.4236 23.6187 72.9803 23.4917C73.5418 23.3647 74.0521 23.3013 74.511 23.3013C76.6497 23.3013 77.719 24.3682 77.719 26.502V30.9844ZM75.5438 27.9375V27.4321L74.1814 27.6079C73.4295 27.7056 73.0535 28.0449 73.0535 28.626C73.0535 28.8896 73.1438 29.1069 73.3245 29.2778C73.5101 29.4438 73.7591 29.5269 74.0716 29.5269C74.5062 29.5269 74.8602 29.3779 75.1336 29.0801C75.407 28.7773 75.5438 28.3965 75.5438 27.9375ZM84.6838 30.8965C84.342 31.0771 83.8269 31.1675 83.1384 31.1675C81.5075 31.1675 80.6921 30.3203 80.6921 28.626V25.1909H79.4763V23.4844H80.6921V21.8657L82.9992 21.2065V23.4844H84.6838V25.1909H82.9992V28.2231C82.9992 29.0044 83.3093 29.395 83.9294 29.395C84.1735 29.395 84.425 29.3242 84.6838 29.1826V30.8965Z" fill="white"/>
<defs>
<clipPath id="clip0_5_3582">
<rect width="19.9844" height="19.9844" fill="white" transform="translate(22.9219 14.9844)"/>
</clipPath>
</defs>
</svg>
