<svg width="19" height="29" viewBox="0 0 19 29" fill="none" xmlns="http://www.w3.org/2000/svg">
<g clip-path="url(#clip0_5_3468)">
<path d="M13.3033 10.6749H11.5328L9.45503 8.58242C9.17701 8.31903 8.75267 8.31903 8.47466 8.58242C8.21127 8.86043 8.21127 9.28477 8.47466 9.56279L9.58672 10.6749H5.59207L6.70414 9.56279C6.96752 9.28477 6.96752 8.86043 6.70414 8.58242C6.44075 8.31903 6.00178 8.31903 5.7384 8.58242L3.64597 10.6749H1.87545C1.11456 10.6749 0.5 11.2894 0.5 12.0503V14.0988C0.5 14.4793 0.80728 14.7866 1.18772 14.7866H1.50964L2.18273 19.1177C2.31442 20.0542 3.1192 20.7419 4.07031 20.7273H11.1231C12.0596 20.7419 12.8644 20.0542 12.9961 19.1177L13.6692 14.7866H13.9911C14.3715 14.7866 14.6788 14.4793 14.6788 14.0988V12.0503C14.6788 11.2894 14.0642 10.6749 13.3033 10.6749ZM1.87545 13.4111V12.0503H13.3033V13.4111H1.87545ZM12.2791 14.7866L11.6499 18.9129C11.606 19.1763 11.3865 19.3665 11.1231 19.3665H4.07031C3.80692 19.3665 3.5728 19.1763 3.54354 18.9129L2.89971 14.7866H12.2791ZM5.07994 17.7569V16.3961C5.07994 16.0157 5.38722 15.7084 5.76766 15.7084C6.13347 15.7084 6.44075 16.0157 6.44075 16.3961V17.7569C6.44075 18.1374 6.13347 18.4447 5.76766 18.4447C5.38722 18.4447 5.07994 18.1374 5.07994 17.7569ZM8.2698 17.7569V16.3961C8.2698 16.0157 8.57708 15.7084 8.95753 15.7084C9.33797 15.7084 9.64525 16.0157 9.64525 16.3961V17.7569C9.64525 18.1374 9.33797 18.4447 8.95753 18.4447C8.57708 18.4447 8.2698 18.1374 8.2698 17.7569Z" fill="#131313"/>
</g>
<defs>
<clipPath id="clip0_5_3468">
<rect width="18.3281" height="28" fill="white" transform="matrix(1 0 0 -1 0.5 28.1719)"/>
</clipPath>
</defs>
</svg>
